<svg width="917" height="947" viewBox="0 0 917 947" fill="none" xmlns="http://www.w3.org/2000/svg">
<path opacity="0.95" d="M0 514H917V747C917 857.457 827.457 947 717 947H200C89.5431 947 0 857.457 0 747V514Z" fill="#130F40"/>
<path opacity="0.95" d="M0 514H917V200C917 89.5431 827.457 0 717 0H200C89.5431 0 0 89.5431 0 200V514Z" fill="#1E1633"/>
<path fill-rule="evenodd" clip-rule="evenodd" d="M153.84 382.601C129.638 445.524 125.381 514.369 141.647 579.793C157.913 645.218 193.915 704.054 244.766 748.316C295.617 792.578 358.855 820.122 425.898 827.212C492.94 834.301 560.541 820.591 619.525 787.943C678.508 755.296 726.019 705.291 755.609 644.715C785.199 584.139 795.435 515.926 784.927 449.334C779.763 416.602 749.041 394.254 716.309 399.419C683.577 404.583 661.229 435.305 666.394 468.037C673.063 510.303 666.566 553.598 647.785 592.046C629.005 630.493 598.849 662.232 561.412 682.953C523.975 703.675 481.069 712.376 438.517 707.877C395.964 703.377 355.827 685.895 323.552 657.801C291.276 629.708 268.426 592.365 258.102 550.84C247.777 509.314 250.479 465.618 265.841 425.681C281.202 385.744 308.479 351.501 343.97 327.598C378.215 304.534 418.507 292.175 459.728 292.034L459.177 322.385C458.602 354.05 497.027 370.136 519.182 347.504L605.669 259.156C618.644 245.903 619.026 224.829 606.542 211.113L523.32 119.682C502.002 96.261 463.017 110.941 462.442 142.606L461.908 172.036C396.062 171.742 331.607 191.245 276.935 228.067C221.019 265.727 178.043 319.679 153.84 382.601Z" fill="#FFE169"/>
<path fill-rule="evenodd" clip-rule="evenodd" d="M466.709 400.421C458.516 390.999 446.158 385 432.333 385C407.665 385 387.667 404.103 387.667 427.667C387.667 435.222 389.722 442.319 393.329 448.474C388.343 446.241 382.816 445 377 445C354.909 445 337 462.909 337 485C337 504.588 351.08 520.888 369.672 524.33C369.669 524.553 369.667 524.776 369.667 525C369.667 547.091 387.575 565 409.667 565C426.154 565 440.311 555.025 446.433 540.781C451.819 543.481 457.899 545 464.333 545C468.092 545 471.73 544.482 475.179 543.512C481.442 550.892 491.423 555.667 502.667 555.667C521.628 555.667 537 542.086 537 525.333C537 524.996 536.994 524.66 536.981 524.326C539.365 524.769 541.822 525 544.333 525C566.425 525 584.333 507.091 584.333 485C584.333 462.909 566.425 445 544.333 445C544.142 445 543.951 445.001 543.76 445.004C544.137 442.613 544.333 440.162 544.333 437.667C544.333 411.525 522.843 390.333 496.333 390.333C485.154 390.333 474.868 394.102 466.709 400.421ZM511 578C511 584.627 504.284 590 496 590C487.716 590 481 584.627 481 578C481 571.373 487.716 566 496 566C504.284 566 511 571.373 511 578ZM473.5 626C480.404 626 486 621.075 486 615C486 608.925 480.404 604 473.5 604C466.596 604 461 608.925 461 615C461 621.075 466.596 626 473.5 626Z" fill="#FDFFA8"/>
</svg>
