<svg width="917" height="947" viewBox="0 0 917 947" fill="none" xmlns="http://www.w3.org/2000/svg">
<path opacity="0.95" d="M0 200C0 89.5431 89.5431 0 200 0H717C827.457 0 917 89.543 917 200V747C917 857.457 827.457 947 717 947H200C89.5431 947 0 857.457 0 747V200Z" fill="#130F40"/>
<path d="M153.373 382.422C129.134 445.44 124.871 514.39 141.162 579.914C157.453 645.438 193.509 704.363 244.438 748.693C295.366 793.022 358.701 820.609 425.845 827.709C492.99 834.809 560.693 821.078 619.767 788.381C678.84 755.683 726.423 705.602 756.058 644.934C785.693 584.267 795.944 515.95 785.421 449.256C780.213 416.251 749.236 393.717 716.231 398.925C683.226 404.132 660.692 435.11 665.9 468.115C672.553 510.28 666.071 553.471 647.336 591.826C628.6 630.182 598.517 661.844 561.17 682.516C523.822 703.188 481.019 711.868 438.569 707.38C396.119 702.891 356.078 685.45 323.88 657.424C291.682 629.398 268.886 592.145 258.587 550.719C248.287 509.293 250.983 465.702 266.307 425.861C281.632 386.02 308.843 351.858 344.249 328.013C378.271 305.099 418.275 292.777 459.219 292.536L458.677 322.376C458.093 354.493 497.068 370.809 519.539 347.854L606.026 259.506C619.186 246.063 619.574 224.688 606.911 210.776L523.689 119.345C502.067 95.5899 462.525 110.479 461.942 142.597L461.416 171.534C395.642 171.339 331.275 190.866 276.656 227.652C220.654 265.369 177.613 319.404 153.373 382.422Z" fill="#FFE169" stroke="black"/>
<path d="M466.331 423.749L466.641 424.106L467.015 423.816C475.089 417.563 485.268 413.833 496.333 413.833C522.573 413.833 543.833 434.808 543.833 460.667C543.833 463.136 543.64 465.561 543.266 467.926L543.174 468.512L543.767 468.504C543.956 468.501 544.144 468.5 544.333 468.5C566.149 468.5 583.833 486.185 583.833 508C583.833 529.815 566.149 547.5 544.333 547.5C541.853 547.5 539.426 547.271 537.073 546.834L536.459 546.72L536.482 547.344C536.494 547.673 536.5 548.002 536.5 548.333C536.5 564.753 521.412 578.167 502.667 578.167C491.563 578.167 481.724 573.451 475.561 566.189L475.353 565.944L475.044 566.031C471.639 566.988 468.046 567.5 464.333 567.5C457.978 567.5 451.975 566 446.657 563.334L446.183 563.096L445.974 563.584C439.928 577.651 425.947 587.5 409.667 587.5C387.851 587.5 370.167 569.815 370.167 548C370.167 547.779 370.168 547.559 370.172 547.339L370.179 546.916L369.763 546.839C351.404 543.44 337.5 527.343 337.5 508C337.5 486.185 355.185 468.5 377 468.5C382.745 468.5 388.202 469.726 393.124 471.93L394.549 472.568L393.76 471.221C390.197 465.139 388.167 458.13 388.167 450.667C388.167 427.4 407.919 408.5 432.333 408.5C446.012 408.5 458.232 414.435 466.331 423.749ZM510.5 601C510.5 607.253 504.118 612.5 496 612.5C487.882 612.5 481.5 607.253 481.5 601C481.5 594.747 487.882 589.5 496 589.5C504.118 589.5 510.5 594.747 510.5 601ZM485.5 638C485.5 643.741 480.189 648.5 473.5 648.5C466.811 648.5 461.5 643.741 461.5 638C461.5 632.259 466.811 627.5 473.5 627.5C480.189 627.5 485.5 632.259 485.5 638Z" fill="#FDFFA8" stroke="black"/>
<path d="M576.5 399H578M581 394.5V396M578.9 396.9L577.8 395.8M583.1 396.9L584.2 395.8M578.9 401.1L577.8 402.2M581 399L585.5 400.5L583.5 401.5L582.5 403.5L581 399Z" stroke="black" stroke-linecap="round" stroke-linejoin="round"/>
</svg>
